<svg width="16" height="16" viewBox="0 0 16 16" fill="none" xmlns="http://www.w3.org/2000/svg">
<path d="M14 5.33333C13.0334 5.33333 12.4934 6.29333 12.7134 7.00666L10.3467 9.37999C10.1467 9.31999 9.85335 9.31999 9.65335 9.37999L7.95335 7.68C8.18002 6.96666 7.64002 5.99999 6.66669 5.99999C5.70002 5.99999 5.15335 6.96 5.38002 7.68L2.34002 10.7133C1.62669 10.4933 0.666687 11.0333 0.666687 12C0.666687 12.7333 1.26669 13.3333 2.00002 13.3333C2.96669 13.3333 3.50669 12.3733 3.28669 11.66L6.32002 8.62C6.52002 8.68 6.81335 8.68 7.01335 8.62L8.71335 10.32C8.48669 11.0333 9.02669 12 10 12C10.9667 12 11.5134 11.04 11.2867 10.32L13.66 7.95333C14.3734 8.17333 15.3334 7.63333 15.3334 6.66666C15.3334 5.93333 14.7334 5.33333 14 5.33333Z" fill="#C7C7C7"/>
<path d="M10 6L10.6267 4.62L12 4L10.6267 3.38L10 2L9.38667 3.38L8 4L9.38667 4.62L10 6Z" fill="#C7C7C7"/>
<path d="M2.33335 7.33333L2.66669 6L4.00002 5.66667L2.66669 5.33333L2.33335 4L2.00002 5.33333L0.666687 5.66667L2.00002 6L2.33335 7.33333Z" fill="#C7C7C7"/>
</svg>
