<svg width="16" height="16" viewBox="0 0 16 16" fill="none" xmlns="http://www.w3.org/2000/svg">
<path d="M13.16 12.22C14.1 11.0667 14.6666 9.6 14.6666 8C14.6666 4.31999 11.68 1.33333 7.99998 1.33333C4.31998 1.33333 1.33331 4.31999 1.33331 8C1.33331 11.68 4.31998 14.6667 7.99998 14.6667C9.59998 14.6667 11.0666 14.1 12.22 13.16C12.4 13.0133 12.5733 12.8533 12.74 12.6867C12.76 12.6667 12.7733 12.6467 12.7866 12.6333C12.92 12.5 13.0466 12.36 13.16 12.22ZM7.99998 13.3333C5.05998 13.3333 2.66665 10.94 2.66665 8C2.66665 5.06 5.05998 2.66666 7.99998 2.66666C10.94 2.66666 13.3333 5.06 13.3333 8C13.3333 9.23333 12.9133 10.36 12.2066 11.2667L11.2533 10.3133C11.7133 9.66 11.9866 8.86666 11.9866 8.00666C11.9866 5.8 10.1933 4.00666 7.98665 4.00666C5.77998 4.00666 3.98665 5.8 3.98665 8.00666C3.98665 10.2133 5.77998 12.0067 7.98665 12.0067C8.85331 12.0067 9.65998 11.7267 10.3133 11.2533L11.26 12.2C10.36 12.9133 9.23331 13.3333 7.99998 13.3333ZM9.27998 8.34C9.39331 7.9 9.29331 7.41999 8.95331 7.07333L8.93998 7.06C8.42665 6.54666 7.60665 6.54 7.08665 7.03333C7.07998 7.04 7.06665 7.04666 7.05331 7.06C6.53331 7.58 6.53331 8.42666 7.05331 8.94666L7.06665 8.95999C7.41331 9.29999 7.89998 9.40666 8.33998 9.28666L9.34665 10.2933C8.94665 10.5333 8.48665 10.68 7.98665 10.68C6.51331 10.68 5.31998 9.48666 5.31998 8.01333C5.31998 6.54 6.51331 5.34666 7.98665 5.34666C9.45998 5.34666 10.6533 6.54 10.6533 8.01333C10.6533 8.5 10.5133 8.95333 10.28 9.34666L9.27998 8.34Z" fill="#C7C7C7"/>
</svg>
