<svg width="16" height="16" viewBox="0 0 16 16" fill="none" xmlns="http://www.w3.org/2000/svg">
<path d="M5.14001 4.47334C4.88001 4.21334 4.46001 4.21334 4.20001 4.47334L1.14001 7.53334C0.880007 7.79334 0.880007 8.21334 1.14001 8.47334L4.20001 11.5333C4.46001 11.7933 4.88001 11.7933 5.14001 11.5333C5.40001 11.2733 5.40001 10.8533 5.14001 10.5933L2.55334 8L5.14001 5.41334C5.39334 5.15334 5.39334 4.72667 5.14001 4.47334ZM10.86 4.47334C10.6 4.73334 10.6 5.15334 10.86 5.41334L13.4467 8L10.86 10.5867C10.6 10.8467 10.6 11.2667 10.86 11.5267C11.12 11.7867 11.54 11.7867 11.8 11.5267L14.86 8.46667C15.12 8.20667 15.12 7.78667 14.86 7.52667L11.8 4.46667C11.5467 4.21334 11.12 4.21334 10.86 4.47334ZM5.33334 8.66667C5.70001 8.66667 6.00001 8.36667 6.00001 8C6.00001 7.63334 5.70001 7.33334 5.33334 7.33334C4.96667 7.33334 4.66667 7.63334 4.66667 8C4.66667 8.36667 4.96667 8.66667 5.33334 8.66667ZM8.00001 8.66667C8.36667 8.66667 8.66667 8.36667 8.66667 8C8.66667 7.63334 8.36667 7.33334 8.00001 7.33334C7.63334 7.33334 7.33334 7.63334 7.33334 8C7.33334 8.36667 7.63334 8.66667 8.00001 8.66667ZM10.6667 7.33334C10.3 7.33334 10 7.63334 10 8C10 8.36667 10.3 8.66667 10.6667 8.66667C11.0333 8.66667 11.3333 8.36667 11.3333 8C11.3333 7.63334 11.0333 7.33334 10.6667 7.33334Z" fill="#C7C7C7"/>
</svg>
